<svg xmlns="http://www.w3.org/2000/svg" viewBox="0 0 48 48"><defs><clipPath><path transform="matrix(15.33333 0 0 11.5 415-125.5)" d="m-24 13c0 1.105-.672 2-1.5 2-.828 0-1.5-.895-1.5-2 0-1.105.672-2 1.5-2 .828 0 1.5.895 1.5 2" fill="#1890d0"/></clipPath><linearGradient id="0" gradientUnits="userSpaceOnUse" x1="24.61" y1="47.593" x2="23.593" y2="-.203"><stop stop-color="#ff433a"/><stop stop-color="#ff9436" offset="1"/></linearGradient></defs><rect height="48" width="48" rx="2.982" fill="url(#0)" fill-rule="evenodd"/><path d="m5.43 25.619c-.079 0-.142.061-.152.149l-.278 2.111.278 2.074c.001.087.073.148.152.148.077 0 .139-.06.152-.148l.329-2.075-.329-2.111c-.012-.087-.075-.148-.152-.148m1.563-1.153c-.013-.091-.078-.153-.158-.153-.08 0-.147.065-.158.153 0 .0001-.374 3.413-.374 3.413l.374 3.337c.011.09.077.154.158.154.08 0 .145-.063.158-.153l.425-3.338zm5.886-3.148c-.153 0-.28.125-.287.285l-.298 6.279.298 4.058c.008.159.134.284.287.284.152 0 .279-.125.288-.284v.0001l.336-4.058-.336-6.279c-.009-.159-.135-.285-.288-.285m-3.047 2.182c-.118 0-.214.094-.223.219l-.335 4.16.335 4.02c.009.125.105.219.223.219.116 0 .213-.094.223-.219l.381-4.02-.381-4.161c-.001-.125-.106-.219-.223-.219m6.143 8.722c.19 0 .345-.153.352-.349l.292-3.989-.291-8.359c-.008-.196-.162-.349-.352-.349-.192 0-.347.154-.353.35 0 0-.259 8.358-.259 8.358l.259 3.991c.006.195.161.348.352.348zm6.338.019c.262 0 .477-.215.482-.48v.003-.003l.204-3.875-.204-9.654c-.005-.264-.221-.48-.482-.48-.262 0-.478.215-.482.481l-.182 9.651c0 .006.182 3.881.182 3.881.004.262.221.478.482.478m-3.193-.015c.228 0 .411-.183.417-.416v.003l.248-3.929-.248-8.42c-.006-.233-.19-.415-.417-.415-.229 0-.413.182-.418.415l-.22 8.42.221 3.928c.005.23.188.413.418.413m-7.77-.037c.135 0 .245-.108.255-.251l.359-4.058-.359-3.861c-.001-.143-.119-.25-.255-.25-.137 0-.247.108-.255.252l-.316 3.859.316 4.058c.009.143.118.251.255.251m-3.02-.222c.099 0 .179-.078.19-.186l.403-3.902-.403-4.049c-.012-.108-.092-.186-.191-.186-.1 0-.18.078-.19.186 0 0-.355 4.049-.355 4.049l.355 3.901c.001.108.09.187.19.187m12.383-12.643c-.247 0-.445.197-.45.448l-.201 8.112.201 3.904c.005.248.203.445.45.445.247 0 .444-.196.45-.448v.003l.226-3.904-.226-8.114c-.006-.251-.203-.447-.45-.447m-6.289 12.906c.171 0 .312-.139.32-.317l.314-4.03-.314-7.715c-.009-.178-.149-.317-.32-.317-.172 0-.313.139-.32.317 0 0-.278 7.715-.278 7.715l.278 4.03c.007.176.148.315.32.315m3.505-.38v-.002l.27-3.964-.27-8.641c-.006-.215-.176-.383-.385-.383-.21 0-.379.168-.385.383l-.239 8.64.24 3.966c.006.213.175.38.385.38.209 0 .378-.168.385-.382zm20.4-8.947c-.64 0-1.251.13-1.808.363-.372-4.213-3.904-7.517-8.213-7.517-1.054 0-2.082.208-2.99.559-.353.136-.447.277-.45.55v14.835c.004.286.226.524.505.553.012.0001 12.873.008 12.956.008 2.581 0 4.674-2.093 4.674-4.674 0-2.582-2.092-4.675-4.674-4.675m-14.417-6.06c-.281 0-.511.23-.515.514l-.211 10.529.211 3.821c.004.279.234.509.515.509.28 0 .51-.23.515-.513v.005l.229-3.822-.229-10.53c-.004-.282-.235-.513-.515-.513" fill="#ffe8e1"/></svg>