<?xml version="1.0" encoding="utf-8"?>
<!-- Generator: Adobe Illustrator 16.0.3, SVG Export Plug-In . SVG Version: 6.00 Build 0)  -->
<!DOCTYPE svg PUBLIC "-//W3C//DTD SVG 1.1//EN" "http://www.w3.org/Graphics/SVG/1.1/DTD/svg11.dtd">
<svg version="1.1" id="レイヤー_1" xmlns="http://www.w3.org/2000/svg" xmlns:xlink="http://www.w3.org/1999/xlink" x="0px"
	 y="0px" width="800px" height="800px" viewBox="0 0 800 800" enable-background="new 0 0 800 800" xml:space="preserve">
<g id="svgg">
	<path fill="#FFFFFF" stroke="#000000" stroke-miterlimit="10" d="M296.51,208.745v-70.45H174.378v491.214h122.133V458.622
		c8.391-119.462,89.41-191.598,184.258-191.598V139.88C425.786,139.88,345.361,158.694,296.51,208.745z"/>
	<path fill="#FFFFFF" stroke="#000000" stroke-miterlimit="10" d="M439.836,379.933c19.31,25.249,30.938,57.731,30.938,93.227
		c0,33.896-10.622,65.088-28.423,89.833l-44.264-34.568c11.47-14.944,20.412-32.979,20.412-54.013
		c0-22.782-10.139-44.754-23.362-60.176L439.836,379.933z"/>
	<path fill="#FFFFFF" stroke="#000000" stroke-miterlimit="10" d="M504.245,330.473c28.259,39.296,45.096,88.839,45.096,142.688
		c0,52.516-16.035,100.986-43.082,139.811l-44.487-34.815c20.594-29.011,35.042-66.627,35.042-106.191
		c0-41.056-15.406-77.542-37.383-107.074L504.245,330.473z"/>
	<path fill="#FFFFFF" stroke="#000000" stroke-miterlimit="10" d="M573.75,473.16c0-59.536-18.462-114.421-49.483-158.048
		l42.489-32.652c36.942,52.892,58.863,118.99,58.863,190.7c0,70.625-21.289,135.824-57.252,188.322l-42.218-32.987
		C556.014,585.271,573.75,531.482,573.75,473.16z"/>
</g>
</svg>
