<?xml version="1.0" encoding="UTF-8" standalone="no"?>
<!DOCTYPE svg PUBLIC "-//W3C//DTD SVG 20010904//EN"
              "http://www.w3.org/TR/2001/REC-SVG-20010904/DTD/svg10.dtd">

<svg xmlns="http://www.w3.org/2000/svg"
     width="3.72667in" height="1.64667in"
     viewBox="0 0 1118 494">
  <path id="Auswahl #1"
        fill="#DAA520" stroke="#DAA520" stroke-width="1"
        d="M 115.00,47.84
           C 115.00,47.84 118.91,47.84 118.91,47.84
             118.91,47.84 135.04,38.01 135.04,38.01
             135.04,38.01 149.17,29.53 149.17,29.53
             149.17,29.53 157.00,26.73 157.00,26.73
             157.00,26.73 177.00,17.64 177.00,17.64
             177.00,17.64 191.00,14.52 191.00,14.52
             191.00,14.52 200.00,11.72 200.00,11.72
             200.00,11.72 219.00,10.32 219.00,10.32
             219.00,10.32 227.00,9.48 227.00,9.48
             227.00,9.48 233.00,8.07 233.00,8.07
             233.00,8.07 257.00,8.07 257.00,8.07
             257.00,8.07 274.00,10.41 274.00,10.41
             274.00,10.41 282.00,9.86 282.00,9.86
             282.00,9.86 292.00,9.86 292.00,9.86
             292.00,9.86 299.00,11.64 299.00,11.64
             299.00,11.64 309.17,16.60 309.17,16.60
             309.17,16.60 319.91,19.24 319.91,19.24
             319.91,19.24 333.17,24.59 333.17,24.59
             333.17,24.59 339.83,26.49 339.83,26.49
             339.83,26.49 345.08,29.42 345.08,29.42
             345.08,29.42 354.09,32.03 354.09,32.03
             354.09,32.03 364.00,34.00 364.00,34.00
             363.71,41.41 367.43,42.58 374.00,44.00
             376.68,48.76 379.96,48.81 385.00,48.00
             387.27,53.33 389.03,55.27 395.00,55.00
             396.48,60.91 405.11,68.72 411.00,70.00
             411.00,70.00 415.00,80.00 415.00,80.00
             415.00,80.00 420.00,80.00 420.00,80.00
             422.31,83.83 425.04,84.60 427.95,87.75
             427.95,87.75 436.74,98.84 436.74,98.84
             443.08,106.07 448.49,109.54 449.00,120.00
             449.00,120.00 453.00,120.00 453.00,120.00
             454.90,125.58 456.12,125.04 458.88,129.27
             461.09,132.65 461.72,135.64 464.99,139.34
             464.99,139.34 472.03,146.30 472.03,146.30
             475.23,151.15 475.98,157.37 476.00,163.00
             472.76,163.36 469.26,163.93 466.22,162.35
             461.83,160.05 460.56,154.18 458.90,150.00
             456.89,144.96 455.04,144.08 453.68,140.91
             450.57,133.66 453.63,132.49 445.00,128.00
             446.81,118.24 441.14,123.06 441.00,109.00
             441.00,109.00 434.00,111.00 434.00,111.00
             434.00,111.00 435.00,105.00 435.00,105.00
             426.09,104.25 432.05,100.97 425.00,97.00
             425.00,97.00 424.00,100.00 424.00,100.00
             422.43,90.56 415.40,85.08 408.60,79.34
             408.60,79.34 401.45,72.26 401.45,72.26
             401.45,72.26 396.28,69.78 396.28,69.78
             396.28,69.78 386.42,63.32 386.42,63.32
             380.33,58.77 378.19,56.55 371.00,52.80
             371.00,52.80 363.29,49.86 363.29,49.86
             363.29,49.86 353.68,42.83 353.68,42.83
             353.68,42.83 349.28,41.51 349.28,41.51
             349.28,41.51 342.00,38.34 342.00,38.34
             342.00,38.34 326.04,33.53 326.04,33.53
             326.04,33.53 318.91,30.10 318.91,30.10
             315.85,29.10 305.80,26.32 303.00,26.29
             295.92,26.23 298.40,25.34 293.00,24.27
             293.00,24.27 287.00,23.54 287.00,23.54
             287.00,23.54 265.00,20.58 265.00,20.58
             265.00,20.58 253.00,20.58 253.00,20.58
             253.00,20.58 247.00,20.58 247.00,20.58
             247.00,20.58 229.00,20.58 229.00,20.58
             229.00,20.58 223.00,22.13 223.00,22.13
             223.00,22.13 217.00,22.76 217.00,22.76
             209.51,24.12 202.73,26.97 195.00,27.00
             195.00,27.00 197.00,31.00 197.00,31.00
             194.65,30.47 192.39,29.63 189.96,29.58
             185.21,29.49 185.10,30.56 181.72,31.54
             181.72,31.54 175.00,32.85 175.00,32.85
             170.82,34.25 167.40,37.19 163.58,39.24
             163.58,39.24 157.05,42.05 157.05,42.05
             151.49,44.94 153.27,46.97 146.00,48.00
             146.00,48.00 146.00,51.00 146.00,51.00
             146.00,51.00 137.00,51.00 137.00,51.00
             135.29,56.03 130.93,57.33 126.00,58.00
             124.28,63.19 122.37,62.06 118.42,65.13
             118.42,65.13 102.11,77.13 102.11,77.13
             98.31,79.94 99.09,81.41 94.00,83.00
             93.06,89.59 90.88,88.50 86.74,92.32
             86.74,92.32 81.21,99.46 81.21,99.46
             81.21,99.46 76.68,103.28 76.68,103.28
             75.79,104.25 71.38,109.56 71.59,110.59
             71.78,111.57 72.79,111.83 73.00,112.00
             73.00,112.00 63.46,124.58 63.46,124.58
             63.46,124.58 59.00,126.00 59.00,126.00
             58.85,137.24 55.31,134.33 50.41,139.28
             50.41,139.28 42.84,149.26 42.84,149.26
             41.13,151.81 41.30,153.31 40.05,155.72
             40.05,155.72 33.04,169.00 33.04,169.00
             31.55,172.43 31.86,173.76 31.08,177.00
             28.54,187.50 28.28,182.51 27.00,196.00
             21.17,199.66 22.14,208.88 21.54,215.00
             20.95,220.98 19.93,221.02 19.28,225.00
             18.55,229.22 18.27,249.01 19.28,252.91
             19.93,255.27 22.61,258.47 24.00,261.00
             24.00,261.00 20.00,260.00 20.00,260.00
             20.00,260.00 20.74,282.00 20.74,282.00
             20.74,282.00 19.00,295.00 19.00,295.00
             13.31,293.03 15.01,289.84 13.47,285.00
             11.81,279.78 10.17,280.26 9.17,270.00
             8.73,265.45 10.13,262.76 6.00,260.00
             7.98,255.25 10.00,254.25 6.00,250.00
             10.13,244.61 10.34,232.76 11.13,226.00
             11.13,226.00 16.13,203.00 16.13,203.00
             16.13,203.00 18.54,186.09 18.54,186.09
             18.54,186.09 21.10,180.83 21.10,180.83
             21.10,180.83 23.21,174.00 23.21,174.00
             23.21,174.00 28.71,161.83 28.71,161.83
             28.71,161.83 33.82,147.54 33.82,147.54
             33.82,147.54 38.06,142.74 38.06,142.74
             38.06,142.74 40.03,138.28 40.03,138.28
             42.83,132.50 45.50,130.92 46.00,124.00
             46.00,124.00 49.00,124.00 49.00,124.00
             49.00,124.00 52.00,115.00 52.00,115.00
             52.00,115.00 56.00,115.00 56.00,115.00
             56.91,107.07 61.62,103.04 66.51,97.38
             66.51,97.38 76.72,85.04 76.72,85.04
             76.72,85.04 83.76,78.55 83.76,78.55
             83.76,78.55 95.02,67.17 95.02,67.17
             100.38,62.13 105.16,61.18 108.00,54.00
             112.67,53.31 113.74,52.61 115.00,47.84 Z
           M 502.00,194.00
           C 508.80,190.77 507.34,188.23 514.02,184.14
             516.30,182.74 519.44,181.10 522.00,180.32
             523.77,179.79 526.15,179.37 528.00,179.30
             530.18,179.23 533.61,179.38 535.35,180.81
             539.97,184.61 539.56,200.48 538.53,206.00
             537.71,210.44 536.12,211.54 538.00,216.00
             532.80,218.85 533.08,222.17 530.28,227.00
             525.80,234.71 515.72,241.91 515.00,251.00
             515.00,251.00 520.00,250.00 520.00,250.00
             520.00,250.00 533.00,253.00 533.00,253.00
             533.00,253.00 534.00,249.00 534.00,249.00
             534.00,249.00 534.00,253.00 534.00,253.00
             534.00,253.00 552.72,254.60 552.72,254.60
             556.03,256.13 557.64,262.80 552.00,265.00
             552.00,265.00 553.00,269.00 553.00,269.00
             548.67,269.20 545.54,269.29 542.00,272.00
             534.22,270.11 521.62,268.49 514.00,271.00
             508.05,264.72 497.85,266.22 490.00,265.00
             490.43,272.27 491.13,273.72 487.00,280.00
             483.65,278.44 483.43,278.76 480.00,280.00
             478.95,275.98 478.57,272.35 475.00,270.00
             475.00,270.00 479.00,266.00 479.00,266.00
             479.00,266.00 476.00,255.00 476.00,255.00
             476.00,255.00 477.00,250.00 477.00,250.00
             477.00,250.00 478.46,247.78 478.46,247.78
             478.46,247.78 479.64,233.09 479.64,233.09
             479.64,233.09 478.00,229.00 478.00,229.00
             478.00,229.00 480.00,221.00 480.00,221.00
             480.00,221.00 477.00,220.00 477.00,220.00
             477.00,220.00 480.00,220.00 480.00,220.00
             480.00,220.00 480.00,217.00 480.00,217.00
             480.00,217.00 475.00,214.00 475.00,214.00
             478.68,207.66 468.87,207.48 465.00,207.36
             455.99,207.08 446.90,209.14 438.00,210.42
             433.58,211.06 430.60,210.35 427.00,213.00
             421.41,211.83 420.57,212.67 417.00,217.00
             417.00,217.00 413.00,216.00 413.00,216.00
             413.00,216.00 411.00,233.00 411.00,233.00
             421.13,232.88 429.36,226.98 437.96,226.48
             444.43,226.09 443.32,233.08 441.11,235.43
             440.02,236.60 427.04,242.39 425.00,242.96
             425.00,242.96 419.11,244.17 419.11,244.17
             417.40,244.98 417.13,245.71 416.00,247.00
             406.99,245.08 404.78,249.99 405.02,258.00
             405.14,262.25 406.92,268.09 412.09,268.37
             415.36,268.55 419.41,265.80 422.00,264.00
             422.00,264.00 425.00,266.00 425.00,266.00
             428.27,256.28 438.89,260.10 444.00,251.00
             444.00,251.00 453.00,249.00 453.00,249.00
             454.50,240.27 461.43,243.46 460.15,250.96
             459.43,255.14 454.93,257.61 451.88,260.10
             443.11,267.26 446.66,271.70 435.00,272.00
             431.66,280.83 418.24,278.94 411.00,282.00
             404.47,278.56 402.58,281.01 399.53,279.01
             393.83,275.27 394.00,258.35 394.00,252.00
             394.00,252.00 379.00,255.33 379.00,255.33
             376.60,255.77 373.82,256.24 372.20,253.69
             371.33,251.76 372.32,246.10 372.20,243.00
             372.20,243.00 378.17,241.15 378.17,241.15
             382.85,239.96 392.08,239.67 395.43,236.28
             397.84,233.85 398.78,228.29 399.00,225.00
             399.00,225.00 396.00,225.00 396.00,225.00
             396.00,225.00 395.00,232.00 395.00,232.00
             393.02,231.99 389.18,232.24 387.60,230.98
             384.77,228.72 387.62,219.65 389.16,217.14
             391.07,214.02 400.35,208.58 404.00,208.00
             407.13,199.76 409.82,207.62 419.00,201.00
             423.85,203.13 430.14,199.41 435.00,198.26
             438.39,197.46 439.87,197.93 443.00,196.00
             443.00,196.00 467.00,196.72 467.00,196.72
             467.00,196.72 486.00,201.00 486.00,201.00
             486.00,201.00 486.00,204.00 486.00,204.00
             486.00,204.00 491.00,203.00 491.00,203.00
             489.84,207.86 489.22,210.30 494.00,213.00
             495.03,209.26 495.20,207.47 499.00,206.00
             499.00,206.00 502.00,194.00 502.00,194.00 Z
           M 357.00,185.00
           C 357.00,185.00 361.00,186.00 361.00,186.00
             361.00,186.00 358.67,191.17 358.67,191.17
             358.67,191.17 359.75,210.00 359.75,210.00
             359.75,210.00 357.00,238.00 357.00,238.00
             357.00,238.00 358.00,261.00 358.00,261.00
             366.15,261.10 364.37,262.11 371.00,265.00
             368.97,268.04 368.85,267.51 366.45,269.78
             365.17,270.99 364.09,272.78 362.59,273.56
             355.89,277.04 350.09,270.65 347.99,265.00
             345.31,257.78 346.01,246.54 347.00,239.00
             325.42,240.92 335.32,237.79 318.00,238.30
             315.63,238.31 311.09,237.41 309.31,238.30
             306.92,239.61 306.99,242.68 307.17,245.00
             307.17,245.00 309.00,266.00 309.00,266.00
             308.95,269.51 309.27,273.25 304.89,273.87
             304.89,273.87 298.00,273.87 298.00,273.87
             294.43,262.33 296.12,257.09 296.00,246.00
             296.00,246.00 295.27,235.17 295.27,235.17
             295.27,235.17 300.83,216.00 300.83,216.00
             301.50,209.39 299.76,206.58 301.62,200.01
             302.20,197.96 302.66,195.54 305.13,195.08
             312.82,193.65 311.91,210.50 313.00,215.00
             313.00,215.00 310.00,223.00 310.00,223.00
             310.00,223.00 330.00,224.00 330.00,224.00
             330.00,224.00 340.00,225.90 340.00,225.90
             340.00,225.90 348.98,229.00 348.98,229.00
             347.16,218.72 349.22,211.89 348.98,202.00
             348.86,197.84 348.46,194.06 350.64,190.22
             352.03,187.77 354.79,186.84 357.00,185.00 Z
           M 60.00,206.00
           C 66.75,202.52 68.31,196.46 74.05,192.48
             78.54,189.36 81.86,189.62 87.00,189.00
             87.00,189.00 93.43,206.71 93.43,206.71
             93.43,206.71 96.00,209.00 96.00,209.00
             96.00,209.00 97.00,214.00 97.00,214.00
             95.34,216.53 95.34,216.47 97.00,219.00
             97.00,219.00 97.00,221.00 97.00,221.00
             94.28,224.69 95.00,227.56 95.00,232.00
             107.36,233.20 106.06,223.79 110.72,216.00
             110.72,216.00 120.00,203.00 120.00,203.00
             120.00,203.00 125.00,204.00 125.00,204.00
             125.00,204.00 126.00,201.00 126.00,201.00
             129.61,208.73 133.67,210.13 136.41,220.00
             136.41,220.00 139.26,238.91 139.26,238.91
             139.26,238.91 143.15,256.00 143.15,256.00
             145.22,261.87 148.98,261.22 151.05,263.72
             152.03,264.91 152.57,267.48 153.00,269.00
             153.00,269.00 145.00,272.00 145.00,272.00
             142.20,270.15 141.93,270.47 139.00,272.00
             131.64,260.58 133.48,263.21 130.27,251.00
             129.37,247.60 128.63,245.62 128.16,242.00
             128.16,242.00 127.30,232.00 127.30,232.00
             127.30,232.00 125.00,221.00 125.00,221.00
             120.96,222.11 120.02,222.70 120.00,227.00
             120.00,227.00 120.00,231.00 120.00,231.00
             110.83,234.32 114.55,241.15 113.11,245.77
             112.40,248.06 110.57,248.67 108.64,252.05
             105.67,257.27 106.57,259.48 107.00,265.00
             100.04,264.39 102.54,268.53 96.70,270.71
             87.21,274.26 85.27,261.30 84.00,255.00
             84.00,255.00 84.00,252.00 84.00,252.00
             85.15,247.33 86.37,243.85 83.08,240.00
             84.90,232.17 83.98,223.92 83.08,216.00
             82.87,213.11 83.27,208.94 79.95,207.59
             74.85,205.53 72.32,218.76 72.16,222.00
             71.63,232.95 68.25,237.81 67.21,245.00
             67.21,245.00 65.11,273.95 65.11,273.95
             63.79,279.04 58.43,281.32 56.02,277.68
             54.79,275.84 55.00,272.19 55.00,270.00
             54.99,264.49 56.38,254.50 54.00,250.00
             56.84,245.42 58.65,236.86 56.00,232.00
             56.00,232.00 58.49,229.71 58.49,229.71
             58.49,229.71 61.23,209.18 61.23,209.18
             61.23,209.18 60.00,206.00 60.00,206.00 Z
           M 603.00,190.00
           C 604.90,190.85 608.78,192.26 610.06,193.72
             611.57,195.44 612.06,199.97 616.05,200.56
             618.45,200.91 620.95,199.00 623.09,198.11
             623.09,198.11 639.17,192.20 639.17,192.20
             644.84,190.90 661.76,189.97 668.00,190.00
             677.23,190.05 673.59,191.89 683.00,192.00
             683.00,192.00 676.00,200.00 676.00,200.00
             673.03,194.75 670.95,196.61 666.00,197.64
             666.00,197.64 659.00,198.84 659.00,198.84
             659.00,198.84 628.00,207.75 628.00,207.75
             625.06,208.88 618.93,211.70 617.42,214.52
             616.20,216.79 617.42,219.66 618.00,222.00
             618.00,222.00 610.00,224.00 610.00,224.00
             610.00,224.00 609.00,233.00 609.00,233.00
             614.34,232.40 618.34,230.89 621.00,226.00
             621.00,226.00 626.00,227.00 626.00,227.00
             626.00,227.00 626.00,224.00 626.00,224.00
             634.45,224.61 642.08,223.62 647.00,216.06
             650.18,220.72 654.93,218.39 659.00,216.06
             661.87,217.39 662.09,216.35 665.09,216.06
             665.09,216.06 669.83,216.06 669.83,216.06
             672.89,215.72 678.19,212.08 682.88,217.97
             683.92,219.28 684.39,220.49 685.00,222.00
             685.00,222.00 674.00,226.00 674.00,226.00
             675.40,229.75 676.68,232.77 675.70,236.91
             674.50,242.01 671.62,240.81 672.00,248.00
             666.60,248.23 664.42,251.02 663.00,256.00
             656.69,254.96 656.31,257.23 651.00,259.81
             651.00,259.81 644.00,262.55 644.00,262.55
             637.60,265.44 636.75,267.20 629.00,268.00
             629.00,268.00 628.00,272.00 628.00,272.00
             625.75,268.94 624.79,270.05 622.00,272.00
             619.78,268.72 618.22,268.72 616.00,272.00
             613.67,269.99 613.94,270.07 614.00,267.00
             606.17,265.23 603.24,259.89 600.01,252.99
             598.84,250.47 597.32,247.66 596.61,245.00
             593.62,233.78 596.95,217.25 599.00,206.00
             599.00,206.00 596.00,205.00 596.00,205.00
             596.00,205.00 600.00,200.00 600.00,200.00
             600.00,200.00 597.00,199.00 597.00,199.00
             600.93,196.68 601.59,194.17 603.00,190.00 Z
           M 825.00,192.00
           C 825.00,192.00 838.00,190.27 838.00,190.27
             838.00,190.27 865.95,194.88 865.95,194.88
             865.95,194.88 874.00,200.00 874.00,200.00
             874.00,200.00 874.67,210.00 874.67,210.00
             874.67,210.00 874.00,223.00 874.00,223.00
             867.32,224.12 868.92,226.61 864.96,231.33
             860.80,236.28 854.04,239.62 852.00,246.00
             863.46,245.72 884.76,238.75 889.00,254.00
             876.22,259.59 871.59,257.17 864.00,258.32
             864.00,258.32 852.00,260.76 852.00,260.76
             852.00,260.76 839.00,262.45 839.00,262.45
             839.00,262.45 826.17,264.46 826.17,264.46
             823.30,265.17 821.28,266.60 818.00,265.99
             815.83,265.59 813.12,263.91 811.07,263.00
             811.07,263.00 811.07,270.87 811.07,270.87
             810.51,274.78 803.30,276.11 800.00,277.00
             800.00,277.00 795.00,271.00 795.00,271.00
             799.64,267.88 797.03,263.98 796.63,259.00
             796.63,259.00 796.04,248.00 796.04,248.00
             796.04,248.00 796.84,239.00 796.84,239.00
             796.23,232.68 796.16,234.41 796.84,228.00
             796.84,228.00 774.17,233.29 774.17,233.29
             774.17,233.29 764.00,239.00 764.00,239.00
             760.17,237.05 750.79,240.33 752.06,244.76
             752.06,244.76 753.90,248.17 753.90,248.17
             753.90,248.17 756.25,253.91 756.25,253.91
             756.25,253.91 768.10,274.83 768.10,274.83
             769.38,277.38 773.24,282.83 771.85,285.57
             770.77,287.71 765.23,289.28 763.00,290.00
             763.00,290.00 757.00,288.00 757.00,288.00
             756.40,279.60 745.69,265.26 741.96,257.00
             740.82,254.46 737.99,247.43 734.87,247.30
             732.82,247.21 729.72,249.76 727.72,250.71
             724.80,252.08 718.40,253.87 716.21,255.58
             712.97,258.11 711.86,262.37 710.12,264.46
             710.12,264.46 706.00,268.00 706.00,268.00
             700.40,267.31 697.95,268.60 697.00,262.00
             697.00,262.00 691.00,264.00 691.00,264.00
             691.00,264.00 693.00,252.00 693.00,252.00
             697.20,249.73 701.98,246.05 702.00,241.00
             705.99,237.21 709.39,231.47 707.00,226.00
             707.00,226.00 712.00,225.00 712.00,225.00
             712.00,225.00 712.00,222.00 712.00,222.00
             712.00,222.00 709.00,221.00 709.00,221.00
             714.88,219.23 717.88,214.83 715.00,209.00
             715.00,209.00 719.00,209.00 719.00,209.00
             720.54,203.39 722.22,201.68 728.00,201.00
             728.20,205.85 732.78,212.63 737.00,215.00
             736.40,219.68 739.62,227.94 745.09,228.44
             750.51,228.93 759.43,224.15 765.00,222.59
             765.00,222.59 787.00,217.79 787.00,217.79
             787.00,217.79 796.00,217.19 796.00,217.19
             796.00,217.19 806.00,215.00 806.00,215.00
             807.88,206.18 815.94,197.48 825.00,196.00
             825.00,196.00 825.00,192.00 825.00,192.00 Z
           M 1012.00,191.00
           C 1029.58,192.40 1020.02,219.29 1026.00,230.00
             1021.48,232.95 1022.84,236.99 1021.99,242.00
             1020.12,252.93 1021.43,255.70 1024.31,266.00
             1025.35,269.68 1026.00,273.33 1028.84,276.20
             1030.57,277.95 1031.78,278.26 1034.00,279.00
             1034.00,279.00 1025.00,287.00 1025.00,287.00
             1025.00,287.00 1019.18,285.31 1019.18,285.31
             1019.18,285.31 1006.00,269.00 1006.00,269.00
             1006.00,269.00 1008.23,266.71 1008.23,266.71
             1008.23,266.71 1007.15,259.00 1007.15,259.00
             1007.15,259.00 1007.15,249.00 1007.15,249.00
             1007.15,249.00 999.00,250.00 999.00,250.00
             999.00,250.00 996.00,255.00 996.00,255.00
             996.00,255.00 992.00,252.00 992.00,252.00
             992.00,252.00 994.00,256.00 994.00,256.00
             994.00,256.00 987.00,255.00 987.00,255.00
             987.00,255.00 987.00,262.00 987.00,262.00
             987.08,268.66 990.81,277.93 981.00,279.15
             979.31,279.53 977.66,279.22 976.00,279.15
             975.98,274.85 975.62,274.08 972.00,272.00
             972.46,270.08 973.07,268.08 972.65,266.09
             971.68,261.53 962.65,255.30 959.00,252.00
             959.00,252.00 965.00,241.00 965.00,241.00
             974.51,241.21 974.81,234.44 973.00,227.00
             973.00,227.00 979.31,218.43 979.31,218.43
             979.31,218.43 987.00,220.00 987.00,220.00
             987.00,220.00 986.07,223.18 986.07,223.18
             986.07,223.18 986.95,229.00 986.95,229.00
             986.95,229.00 986.95,239.00 986.95,239.00
             992.43,237.54 1000.09,235.90 1004.00,232.00
             1004.00,232.00 1009.00,234.00 1009.00,234.00
             1009.00,234.00 1010.00,215.00 1010.00,215.00
             1010.02,204.25 1009.21,201.72 1012.00,191.00 Z
           M 450.00,192.00
           C 450.00,192.00 451.00,192.00 451.00,192.00
             451.00,192.00 450.00,193.00 450.00,193.00
             450.00,193.00 450.00,192.00 450.00,192.00 Z
           M 528.00,208.00
           C 528.00,208.00 528.84,197.06 528.84,197.06
             528.39,193.89 526.28,192.59 523.23,193.74
             520.94,194.60 513.49,201.45 513.53,203.99
             513.55,205.48 514.28,205.96 515.00,207.00
             509.78,208.12 506.24,208.84 507.00,215.00
             502.82,216.59 502.55,218.83 502.00,223.00
             502.00,223.00 499.00,223.00 499.00,223.00
             498.58,228.00 496.26,231.80 499.00,236.00
             495.00,237.63 496.65,239.37 498.00,243.00
             498.00,243.00 503.00,243.00 503.00,243.00
             505.15,238.24 515.54,226.46 519.51,221.00
             522.95,216.27 525.54,213.89 524.00,208.00
             524.00,208.00 528.00,208.00 528.00,208.00 Z
           M 939.00,193.00
           C 939.00,193.00 940.00,193.00 940.00,193.00
             940.00,193.00 939.00,194.00 939.00,194.00
             939.00,194.00 939.00,193.00 939.00,193.00 Z
           M 888.00,215.00
           C 888.94,211.57 892.06,201.00 894.56,198.93
             898.75,195.45 907.16,197.14 912.00,197.45
             917.48,198.36 918.50,197.26 923.00,197.45
             923.00,197.45 932.00,197.45 932.00,197.45
             946.70,196.94 944.63,195.33 951.00,194.08
             951.00,194.08 958.00,194.08 958.00,194.08
             961.36,193.69 965.62,192.40 968.43,195.01
             971.02,197.42 970.34,203.34 967.44,205.26
             964.48,207.23 945.17,211.65 941.00,212.00
             941.00,212.00 939.00,216.00 939.00,216.00
             934.62,211.52 934.50,212.92 929.00,213.87
             929.00,213.87 922.00,213.87 922.00,213.87
             922.00,213.87 921.00,217.00 921.00,217.00
             918.80,214.10 917.78,216.27 917.65,219.02
             917.46,223.18 917.98,228.37 920.00,232.00
             917.33,235.63 917.22,245.63 919.21,249.73
             919.85,251.06 920.97,251.99 922.00,253.00
             919.13,257.61 922.37,267.37 926.00,271.00
             925.25,277.67 927.48,279.20 921.00,283.00
             921.00,283.00 913.49,281.67 913.49,281.67
             913.49,281.67 907.18,272.00 907.18,272.00
             909.95,267.92 908.30,266.46 907.18,262.00
             907.18,262.00 905.41,242.11 905.41,242.11
             904.72,240.38 904.18,240.19 903.00,239.00
             907.67,230.57 900.68,223.52 892.00,224.00
             892.00,224.00 891.00,221.00 891.00,221.00
             894.67,217.96 891.14,216.02 888.00,215.00 Z
           M 872.00,196.00
           C 872.00,196.00 873.00,196.00 873.00,196.00
             873.00,196.00 872.00,197.00 872.00,197.00
             872.00,197.00 872.00,196.00 872.00,196.00 Z
           M 251.00,197.00
           C 251.00,197.00 253.00,200.00 253.00,200.00
             253.00,200.00 250.00,204.00 250.00,204.00
             250.00,204.00 270.00,205.62 270.00,205.62
             273.59,205.76 280.22,204.63 282.91,205.62
             287.11,206.93 290.83,213.40 288.01,217.35
             288.01,217.35 278.00,224.00 278.00,224.00
             276.16,221.39 275.81,221.67 273.00,223.00
             270.38,221.01 267.12,219.48 264.00,221.00
             264.00,221.00 249.00,219.00 249.00,219.00
             249.00,219.00 250.00,224.00 250.00,224.00
             250.00,224.00 246.00,225.00 246.00,225.00
             246.00,225.00 244.00,249.00 244.00,249.00
             244.00,249.00 254.00,246.00 254.00,246.00
             254.00,246.00 255.00,251.00 255.00,251.00
             250.88,253.79 253.07,255.75 252.00,261.00
             252.00,261.00 245.00,258.00 245.00,258.00
             245.62,262.65 245.71,264.07 247.58,268.42
             248.64,270.91 249.61,274.12 248.40,276.74
             246.68,280.52 241.41,279.46 239.13,276.74
             233.59,270.03 233.11,255.00 228.00,249.00
             228.52,244.19 227.87,243.48 227.29,239.00
             226.33,231.64 227.02,228.73 221.00,223.00
             221.00,218.13 219.15,218.17 218.96,214.96
             218.42,206.14 225.09,204.68 231.00,201.00
             235.75,204.49 238.41,202.41 243.00,200.00
             243.00,200.00 248.00,203.00 248.00,203.00
             248.00,203.00 245.00,199.00 245.00,199.00
             245.00,199.00 251.00,197.00 251.00,197.00 Z
           M 156.00,224.00
           C 161.92,220.67 160.62,214.49 163.95,209.46
             166.06,206.27 175.13,198.45 178.91,198.26
             181.63,198.13 190.10,201.86 193.00,203.00
             193.84,206.91 200.79,217.36 203.10,222.00
             206.34,228.50 203.25,228.77 209.13,234.00
             206.05,238.19 208.64,243.05 209.13,248.00
             210.35,256.78 210.61,264.33 204.29,271.26
             195.90,280.48 172.64,283.89 164.97,271.82
             163.04,268.78 160.04,255.64 160.30,252.00
             160.56,248.31 162.76,245.26 162.35,241.01
             161.71,234.34 157.94,235.51 159.00,225.00
             159.00,225.00 156.00,224.00 156.00,224.00 Z
           M 262.00,200.00
           C 262.00,200.00 263.00,200.00 263.00,200.00
             263.00,200.00 262.00,201.00 262.00,201.00
             262.00,201.00 262.00,200.00 262.00,200.00 Z
           M 268.00,200.00
           C 268.00,200.00 269.00,200.00 269.00,200.00
             269.00,200.00 268.00,201.00 268.00,201.00
             268.00,201.00 268.00,200.00 268.00,200.00 Z
           M 716.00,200.00
           C 716.00,200.00 717.00,200.00 717.00,200.00
             717.00,200.00 716.00,201.00 716.00,201.00
             716.00,201.00 716.00,200.00 716.00,200.00 Z
           M 62.00,201.00
           C 62.00,201.00 63.00,201.00 63.00,201.00
             63.00,201.00 62.00,202.00 62.00,202.00
             62.00,202.00 62.00,201.00 62.00,201.00 Z
           M 266.00,201.00
           C 266.00,201.00 267.00,201.00 267.00,201.00
             267.00,201.00 266.00,202.00 266.00,202.00
             266.00,202.00 266.00,201.00 266.00,201.00 Z
           M 848.00,203.00
           C 848.00,203.00 841.00,206.00 841.00,206.00
             836.89,201.42 826.92,204.82 823.62,209.22
             822.10,211.24 822.19,213.60 822.00,216.00
             822.00,216.00 818.00,215.00 818.00,215.00
             818.00,215.00 810.95,229.17 810.95,229.17
             808.98,235.24 809.27,241.73 809.30,248.00
             809.32,252.06 808.72,252.31 812.00,255.00
             808.54,258.12 812.01,259.32 815.00,260.00
             815.02,257.91 814.92,255.04 815.74,253.10
             817.66,248.56 825.42,245.52 830.00,245.00
             830.00,245.00 829.00,241.00 829.00,241.00
             829.00,241.00 830.00,240.00 830.00,240.00
             838.99,242.05 841.76,233.41 850.00,230.00
             850.00,230.00 849.00,225.98 849.00,225.98
             850.52,226.21 851.01,226.62 852.68,225.98
             856.10,224.60 864.64,214.77 862.16,209.52
             860.09,205.12 853.21,204.56 849.00,204.00
             849.00,204.00 848.00,207.00 848.00,207.00
             848.00,207.00 848.00,203.00 848.00,203.00 Z
           M 59.00,204.00
           C 59.00,204.00 60.00,204.00 60.00,204.00
             60.00,204.00 59.00,205.00 59.00,205.00
             59.00,205.00 59.00,204.00 59.00,204.00 Z
           M 595.00,207.00
           C 595.00,207.00 596.00,207.00 596.00,207.00
             596.00,207.00 595.00,208.00 595.00,208.00
             595.00,208.00 595.00,207.00 595.00,207.00 Z
           M 833.00,207.00
           C 833.00,207.00 834.00,207.00 834.00,207.00
             834.00,207.00 833.00,208.00 833.00,208.00
             833.00,208.00 833.00,207.00 833.00,207.00 Z
           M 845.00,207.00
           C 845.00,207.00 846.00,207.00 846.00,207.00
             846.00,207.00 845.00,208.00 845.00,208.00
             845.00,208.00 845.00,207.00 845.00,207.00 Z
           M 136.00,209.00
           C 136.00,209.00 137.00,209.00 137.00,209.00
             137.00,209.00 136.00,210.00 136.00,210.00
             136.00,210.00 136.00,209.00 136.00,209.00 Z
           M 907.00,211.00
           C 907.00,211.00 899.00,211.00 899.00,211.00
             900.37,214.95 902.08,215.87 906.00,217.00
             906.00,217.00 907.00,211.00 907.00,211.00 Z
           M 135.00,211.00
           C 135.00,211.00 136.00,211.00 136.00,211.00
             136.00,211.00 135.00,212.00 135.00,212.00
             135.00,212.00 135.00,211.00 135.00,211.00 Z
           M 137.00,213.00
           C 137.00,213.00 138.00,213.00 138.00,213.00
             138.00,213.00 137.00,214.00 137.00,214.00
             137.00,214.00 137.00,213.00 137.00,213.00 Z
           M 236.00,222.00
           C 235.41,217.92 235.02,217.15 231.00,216.00
             231.88,220.00 232.04,220.69 236.00,222.00 Z
           M 475.00,218.00
           C 475.00,218.00 476.00,218.00 476.00,218.00
             476.00,218.00 475.00,219.00 475.00,219.00
             475.00,219.00 475.00,218.00 475.00,218.00 Z
           M 1005.00,220.00
           C 1005.00,220.00 1006.00,220.00 1006.00,220.00
             1006.00,220.00 1005.00,221.00 1005.00,221.00
             1005.00,221.00 1005.00,220.00 1005.00,220.00 Z
           M 191.00,227.00
           C 189.93,223.93 190.07,224.07 187.00,223.00
             187.00,223.00 187.00,227.00 187.00,227.00
             187.00,227.00 191.00,227.00 191.00,227.00 Z
           M 475.00,222.00
           C 475.00,222.00 476.00,222.00 476.00,222.00
             476.00,222.00 475.00,223.00 475.00,223.00
             475.00,223.00 475.00,222.00 475.00,222.00 Z
           M 102.00,224.00
           C 102.00,224.00 103.00,224.00 103.00,224.00
             103.00,224.00 102.00,225.00 102.00,225.00
             102.00,225.00 102.00,224.00 102.00,224.00 Z
           M 848.00,224.00
           C 848.00,224.00 849.00,224.00 849.00,224.00
             849.00,224.00 848.00,225.00 848.00,225.00
             848.00,225.00 848.00,224.00 848.00,224.00 Z
           M 1003.00,225.00
           C 1003.00,225.00 1004.00,225.00 1004.00,225.00
             1004.00,225.00 1003.00,226.00 1003.00,226.00
             1003.00,226.00 1003.00,225.00 1003.00,225.00 Z
           M 476.00,226.00
           C 476.00,226.00 477.00,226.00 477.00,226.00
             477.00,226.00 476.00,227.00 476.00,227.00
             476.00,227.00 476.00,226.00 476.00,226.00 Z
           M 672.00,227.00
           C 672.00,227.00 668.00,227.00 668.00,227.00
             668.00,227.00 668.00,230.00 668.00,230.00
             668.00,230.00 672.00,230.00 672.00,230.00
             672.00,230.00 672.00,227.00 672.00,227.00 Z
           M 194.00,230.00
           C 191.78,229.47 189.09,228.26 186.91,228.58
             179.80,229.64 175.59,237.39 177.00,244.00
             175.06,245.80 175.58,245.92 177.00,248.00
             177.00,248.00 173.00,248.00 173.00,248.00
             171.74,255.05 171.67,265.81 182.00,264.00
             185.70,267.74 195.80,261.70 197.80,257.67
             200.68,251.87 194.39,237.08 194.00,230.00 Z
           M 727.00,228.00
           C 722.06,229.69 722.24,232.22 722.00,237.00
             722.00,237.00 728.00,236.00 728.00,236.00
             728.00,236.00 726.00,233.00 726.00,233.00
             726.00,233.00 727.00,228.00 727.00,228.00 Z
           M 650.00,244.00
           C 656.76,245.35 658.27,242.77 663.06,238.62
             664.94,237.00 667.20,235.05 666.29,232.22
             665.40,229.44 658.53,226.10 655.00,234.00
             652.15,232.62 651.40,231.78 650.00,235.00
             642.01,232.75 636.79,236.08 629.72,239.12
             625.71,240.84 623.27,239.53 624.00,245.00
             619.51,246.40 615.63,246.35 614.00,251.00
             614.00,251.00 620.32,254.52 620.32,254.52
             624.32,255.83 632.34,254.23 635.00,251.00
             635.00,251.00 649.00,249.00 649.00,249.00
             649.00,249.00 650.00,244.00 650.00,244.00 Z
           M 1004.00,228.00
           C 1004.00,228.00 1005.00,228.00 1005.00,228.00
             1005.00,228.00 1004.00,229.00 1004.00,229.00
             1004.00,229.00 1004.00,228.00 1004.00,228.00 Z
           M 189.00,231.00
           C 189.00,231.00 190.00,231.00 190.00,231.00
             190.00,231.00 189.00,232.00 189.00,232.00
             189.00,232.00 189.00,231.00 189.00,231.00 Z
           M 476.00,231.00
           C 476.00,231.00 477.00,231.00 477.00,231.00
             477.00,231.00 476.00,232.00 476.00,232.00
             476.00,232.00 476.00,231.00 476.00,231.00 Z
           M 74.00,233.00
           C 74.00,233.00 75.00,233.00 75.00,233.00
             75.00,233.00 74.00,234.00 74.00,234.00
             74.00,234.00 74.00,233.00 74.00,233.00 Z
           M 95.00,242.00
           C 101.56,240.85 101.56,235.15 95.00,234.00
             95.00,234.00 95.00,242.00 95.00,242.00 Z
           M 123.00,234.00
           C 123.00,234.00 124.00,234.00 124.00,234.00
             124.00,234.00 123.00,235.00 123.00,235.00
             123.00,235.00 123.00,234.00 123.00,234.00 Z
           M 901.00,236.00
           C 901.00,236.00 902.00,236.00 902.00,236.00
             902.00,236.00 901.00,237.00 901.00,237.00
             901.00,237.00 901.00,236.00 901.00,236.00 Z
           M 642.00,238.00
           C 642.00,238.00 643.00,238.00 643.00,238.00
             643.00,238.00 642.00,239.00 642.00,239.00
             642.00,239.00 642.00,238.00 642.00,238.00 Z
           M 769.00,239.00
           C 769.00,239.00 770.00,239.00 770.00,239.00
             770.00,239.00 769.00,240.00 769.00,240.00
             769.00,240.00 769.00,239.00 769.00,239.00 Z
           M 249.00,241.00
           C 249.00,241.00 250.00,241.00 250.00,241.00
             250.00,241.00 249.00,242.00 249.00,242.00
             249.00,242.00 249.00,241.00 249.00,241.00 Z
           M 497.00,242.00
           C 497.00,242.00 494.00,242.00 494.00,242.00
             494.00,242.00 494.00,247.00 494.00,247.00
             494.00,247.00 498.00,247.00 498.00,247.00
             498.00,247.00 497.00,242.00 497.00,242.00 Z
           M 699.00,243.00
           C 699.00,243.00 700.00,243.00 700.00,243.00
             700.00,243.00 699.00,244.00 699.00,244.00
             699.00,244.00 699.00,243.00 699.00,243.00 Z
           M 626.00,245.00
           C 626.00,245.00 627.00,245.00 627.00,245.00
             627.00,245.00 626.00,246.00 626.00,246.00
             626.00,246.00 626.00,245.00 626.00,245.00 Z
           M 446.00,248.00
           C 446.00,248.00 447.00,248.00 447.00,248.00
             447.00,248.00 446.00,249.00 446.00,249.00
             446.00,249.00 446.00,248.00 446.00,248.00 Z
           M 520.00,248.00
           C 520.00,248.00 521.00,248.00 521.00,248.00
             521.00,248.00 520.00,249.00 520.00,249.00
             520.00,249.00 520.00,248.00 520.00,248.00 Z
           M 528.00,248.00
           C 528.00,248.00 529.00,248.00 529.00,248.00
             529.00,248.00 528.00,249.00 528.00,249.00
             528.00,249.00 528.00,248.00 528.00,248.00 Z
           M 814.00,248.00
           C 814.00,248.00 815.00,248.00 815.00,248.00
             815.00,248.00 814.00,249.00 814.00,249.00
             814.00,249.00 814.00,248.00 814.00,248.00 Z
           M 812.00,249.00
           C 812.00,249.00 813.00,249.00 813.00,249.00
             813.00,249.00 812.00,250.00 812.00,250.00
             812.00,250.00 812.00,249.00 812.00,249.00 Z
           M 267.00,251.00
           C 267.00,251.00 268.00,251.00 268.00,251.00
             268.00,251.00 267.00,252.00 267.00,252.00
             267.00,252.00 267.00,251.00 267.00,251.00 Z
           M 389.00,255.00
           C 389.00,255.00 390.00,255.00 390.00,255.00
             390.00,255.00 389.00,256.00 389.00,256.00
             389.00,256.00 389.00,255.00 389.00,255.00 Z
           M 596.00,255.00
           C 596.00,255.00 597.00,255.00 597.00,255.00
             597.00,255.00 596.00,256.00 596.00,256.00
             596.00,256.00 596.00,255.00 596.00,255.00 Z
           M 0.00,256.00
           C 0.00,256.00 1.00,256.00 1.00,256.00
             1.00,256.00 0.00,257.00 0.00,257.00
             0.00,257.00 0.00,256.00 0.00,256.00 Z
           M 760.00,256.00
           C 760.00,256.00 761.00,256.00 761.00,256.00
             761.00,256.00 760.00,257.00 760.00,257.00
             760.00,257.00 760.00,256.00 760.00,256.00 Z
           M 2.00,258.00
           C 2.00,258.00 3.00,258.00 3.00,258.00
             3.00,258.00 2.00,259.00 2.00,259.00
             2.00,259.00 2.00,258.00 2.00,258.00 Z
           M 658.00,260.00
           C 658.00,260.00 659.00,260.00 659.00,260.00
             659.00,260.00 658.00,261.00 658.00,261.00
             658.00,261.00 658.00,260.00 658.00,260.00 Z
           M 249.00,262.00
           C 249.00,262.00 250.00,262.00 250.00,262.00
             250.00,262.00 249.00,263.00 249.00,263.00
             249.00,263.00 249.00,262.00 249.00,262.00 Z
           M 742.00,263.00
           C 742.00,263.00 743.00,263.00 743.00,263.00
             743.00,263.00 742.00,264.00 742.00,264.00
             742.00,264.00 742.00,263.00 742.00,263.00 Z
           M 51.00,264.00
           C 51.00,264.00 52.00,264.00 52.00,264.00
             52.00,264.00 51.00,265.00 51.00,265.00
             51.00,265.00 51.00,264.00 51.00,264.00 Z
           M 500.00,269.00
           C 500.00,269.00 501.00,269.00 501.00,269.00
             501.00,269.00 500.00,270.00 500.00,270.00
             500.00,270.00 500.00,269.00 500.00,269.00 Z
           M 973.00,277.00
           C 973.00,277.00 974.00,277.00 974.00,277.00
             974.00,277.00 973.00,278.00 973.00,278.00
             973.00,278.00 973.00,277.00 973.00,277.00 Z
           M 908.00,280.00
           C 908.00,280.00 909.00,280.00 909.00,280.00
             909.00,280.00 908.00,281.00 908.00,281.00
             908.00,281.00 908.00,280.00 908.00,280.00 Z
           M 910.00,282.00
           C 910.00,282.00 911.00,282.00 911.00,282.00
             911.00,282.00 910.00,283.00 910.00,283.00
             910.00,283.00 910.00,282.00 910.00,282.00 Z
           M 914.00,286.00
           C 914.00,286.00 915.00,286.00 915.00,286.00
             915.00,286.00 914.00,287.00 914.00,287.00
             914.00,287.00 914.00,286.00 914.00,286.00 Z
           M 19.00,296.00
           C 19.00,296.00 20.00,296.00 20.00,296.00
             20.00,296.00 19.00,297.00 19.00,297.00
             19.00,297.00 19.00,296.00 19.00,296.00 Z
           M 483.00,322.00
           C 484.58,303.35 500.10,301.49 514.91,298.52
             520.08,297.48 520.22,295.71 527.00,296.09
             532.11,296.38 535.26,297.69 539.96,298.79
             548.08,300.68 556.81,302.14 561.39,310.21
             566.96,320.01 561.89,325.31 560.00,332.00
             560.00,332.00 549.00,343.00 549.00,343.00
             549.00,343.00 544.00,343.00 544.00,343.00
             544.00,343.00 545.00,349.00 545.00,349.00
             539.02,348.32 534.63,347.89 531.00,354.00
             526.71,353.96 522.21,356.22 519.00,359.00
             519.00,359.00 515.00,358.00 515.00,358.00
             515.00,358.00 514.00,363.00 514.00,363.00
             521.07,362.97 521.21,363.22 526.00,358.00
             527.42,359.56 527.95,360.43 530.04,361.26
             535.35,363.38 553.29,359.43 560.00,358.98
             566.27,358.55 571.21,357.03 574.46,364.26
             575.27,366.05 575.73,369.96 576.00,372.00
             566.35,373.97 569.27,372.61 563.00,373.45
             563.00,373.45 552.00,375.70 552.00,375.70
             542.92,377.00 541.74,374.94 533.00,381.00
             530.33,377.13 528.09,378.86 523.00,378.99
             514.87,379.18 502.95,378.09 496.00,382.00
             496.00,382.00 492.00,379.00 492.00,379.00
             492.61,383.63 495.60,397.22 494.12,400.74
             492.58,404.39 486.33,407.65 482.89,403.68
             482.89,403.68 479.00,397.00 479.00,397.00
             479.00,397.00 480.00,393.00 480.00,393.00
             480.00,393.00 476.03,393.00 476.03,393.00
             477.95,384.98 475.13,377.22 476.03,365.00
             476.54,359.26 478.65,352.33 476.03,347.00
             480.01,341.65 480.17,333.04 478.00,327.00
             480.96,324.79 479.17,323.09 478.00,320.00
             478.00,320.00 483.00,322.00 483.00,322.00 Z
           M 499.00,297.00
           C 499.00,297.00 500.00,297.00 500.00,297.00
             500.00,297.00 499.00,298.00 499.00,298.00
             499.00,298.00 499.00,297.00 499.00,297.00 Z
           M 622.00,304.00
           C 622.00,304.00 630.02,312.03 630.02,312.03
             634.18,317.48 634.19,323.00 642.00,322.00
             642.00,322.00 638.00,324.00 638.00,324.00
             640.62,330.67 643.11,338.68 649.00,343.00
             649.00,343.00 648.00,347.00 648.00,347.00
             654.55,345.51 666.50,340.15 672.83,342.58
             672.83,342.58 683.00,350.00 683.00,350.00
             679.61,352.15 679.70,353.12 680.00,357.00
             680.00,357.00 672.00,359.00 672.00,359.00
             668.45,353.67 667.57,356.94 662.00,358.11
             660.07,358.52 656.44,358.28 656.09,361.23
             655.82,363.54 658.86,367.26 660.03,369.28
             661.88,372.47 668.16,383.98 668.73,387.00
             669.83,392.84 666.97,398.45 660.09,396.92
             653.17,395.38 652.16,389.83 649.00,385.00
             651.39,379.84 648.55,377.27 644.00,375.00
             644.00,372.52 644.44,367.48 642.40,365.77
             640.02,363.77 636.72,365.70 634.42,366.76
             628.21,369.62 625.80,366.98 620.00,373.00
             620.00,373.00 618.00,373.00 618.00,373.00
             609.89,369.19 608.72,382.72 605.43,386.20
             605.43,386.20 596.00,392.00 596.00,392.00
             590.80,384.09 594.66,385.38 593.85,378.04
             593.39,373.83 591.07,373.11 590.17,370.68
             589.43,367.62 591.62,367.00 590.17,360.00
             598.08,361.79 607.66,359.42 603.00,349.00
             605.57,347.15 605.28,347.12 605.00,344.00
             613.69,341.15 615.60,325.86 617.59,318.00
             618.63,313.87 619.51,312.37 619.00,308.00
             619.00,308.00 622.00,304.00 622.00,304.00 Z
           M 869.00,304.00
           C 869.00,304.00 880.00,308.00 880.00,308.00
             880.00,308.00 878.00,312.00 878.00,312.00
             878.00,312.00 882.00,313.00 882.00,313.00
             880.08,315.27 879.73,315.26 881.00,318.00
             879.89,322.63 879.65,323.78 882.00,328.00
             878.26,330.68 879.11,338.20 881.00,342.00
             877.97,345.54 877.95,348.36 882.00,351.00
             881.41,352.64 880.55,354.35 880.35,356.09
             880.01,359.05 882.11,369.92 883.13,372.96
             884.56,377.22 887.75,379.88 886.20,384.96
             885.00,388.88 881.85,389.63 879.00,392.00
             879.00,392.00 872.00,392.00 872.00,392.00
             872.98,385.84 872.10,383.46 867.00,380.00
             870.10,374.39 865.78,368.76 865.00,363.00
             865.00,363.00 861.00,362.00 861.00,362.00
             861.00,362.00 865.00,362.00 865.00,362.00
             865.00,362.00 863.00,357.00 863.00,357.00
             866.05,352.86 866.00,342.28 866.00,337.00
             866.00,337.00 863.00,336.00 863.00,336.00
             867.19,333.20 866.00,328.65 866.00,324.00
             866.00,324.00 863.00,323.00 863.00,323.00
             863.00,323.00 865.49,320.71 865.49,320.71
             865.49,320.71 869.00,304.00 869.00,304.00 Z
           M 984.00,305.00
           C 984.00,305.00 987.00,311.00 987.00,311.00
             987.00,311.00 995.00,310.00 995.00,310.00
             995.40,316.89 997.53,319.00 1003.00,323.00
             1003.00,323.00 1004.51,334.00 1004.51,334.00
             1004.51,334.00 1006.00,349.00 1006.00,349.00
             1006.00,349.00 1009.00,350.00 1009.00,350.00
             1004.13,353.26 1005.46,361.96 1002.44,367.00
             1001.16,369.14 994.77,377.07 992.91,378.74
             988.15,383.01 972.07,392.46 966.00,394.50
             956.35,397.75 960.92,400.97 951.00,397.00
             951.00,397.00 948.00,400.00 948.00,400.00
             948.00,400.00 949.00,396.00 949.00,396.00
             940.32,396.37 931.19,387.28 929.33,379.00
             928.12,373.62 928.25,365.12 926.00,361.00
             926.67,360.32 927.13,360.28 928.00,358.78
             928.00,358.78 933.09,344.09 933.09,344.09
             937.47,333.97 944.64,320.66 952.74,313.15
             958.08,308.20 962.01,310.89 965.91,310.57
             968.69,310.34 969.30,309.06 974.01,308.64
             978.39,308.24 981.36,308.96 984.00,305.00 Z
           M 788.00,309.00
           C 788.00,309.00 790.00,309.00 790.00,309.00
             793.28,311.51 794.32,310.96 797.91,312.24
             803.23,314.14 804.98,316.71 811.00,314.00
             811.00,314.00 811.00,318.00 811.00,318.00
             821.22,318.50 826.04,323.39 830.73,332.00
             832.02,334.36 833.54,336.40 834.35,339.00
             838.47,352.20 833.92,364.82 827.57,376.28
             827.57,376.28 824.64,381.76 824.64,381.76
             822.15,385.33 812.49,392.12 810.00,399.00
             810.00,399.00 802.00,399.00 802.00,399.00
             802.00,399.00 803.00,403.00 803.00,403.00
             803.00,403.00 795.00,403.00 795.00,403.00
             795.00,403.00 795.00,407.00 795.00,407.00
             788.58,406.24 779.92,410.00 775.00,414.00
             772.79,411.08 771.46,411.84 768.00,412.00
             768.00,412.00 767.00,415.00 767.00,415.00
             763.86,409.63 758.48,409.77 753.54,406.32
             749.39,403.43 751.11,401.66 745.00,400.00
             745.00,400.00 744.00,395.00 744.00,395.00
             744.00,395.00 740.00,396.00 740.00,396.00
             740.00,396.00 739.09,386.00 739.09,386.00
             739.09,386.00 739.87,372.00 739.87,372.00
             739.87,372.00 738.26,365.00 738.26,365.00
             738.26,365.00 736.76,335.00 736.76,335.00
             736.76,335.00 740.00,321.00 740.00,321.00
             740.00,321.00 755.91,313.59 755.91,313.59
             755.91,313.59 760.00,310.00 760.00,310.00
             766.25,312.64 782.43,313.13 788.00,309.00 Z
           M 521.00,344.00
           C 524.75,336.79 536.73,334.47 545.15,326.75
             546.48,325.53 548.24,324.33 549.05,322.67
             552.09,316.43 543.51,314.85 539.42,313.05
             532.26,309.89 525.36,311.41 518.00,312.07
             518.00,312.07 509.00,312.07 509.00,312.07
             503.99,313.09 505.20,314.93 499.00,315.00
             498.45,316.81 497.55,319.12 497.65,321.00
             497.87,325.26 503.80,331.78 494.00,332.00
             494.00,332.00 490.00,355.00 490.00,355.00
             502.03,354.33 512.23,345.15 521.00,344.00 Z
           M 882.00,310.00
           C 882.00,310.00 883.00,310.00 883.00,310.00
             883.00,310.00 882.00,311.00 882.00,311.00
             882.00,311.00 882.00,310.00 882.00,310.00 Z
           M 751.00,312.00
           C 751.00,312.00 752.00,312.00 752.00,312.00
             752.00,312.00 751.00,313.00 751.00,313.00
             751.00,313.00 751.00,312.00 751.00,312.00 Z
           M 613.00,320.00
           C 613.00,320.00 614.00,320.00 614.00,320.00
             614.00,320.00 613.00,321.00 613.00,321.00
             613.00,321.00 613.00,320.00 613.00,320.00 Z
           M 989.00,352.00
           C 993.47,350.38 993.18,347.35 992.96,343.00
             992.45,332.90 985.37,324.35 975.00,324.00
             975.00,324.00 977.00,336.00 977.00,336.00
             968.38,330.99 969.84,326.79 963.96,327.25
             954.92,327.97 954.06,333.08 950.77,338.74
             950.77,338.74 948.08,342.43 948.08,342.43
             948.08,342.43 945.82,347.83 945.82,347.83
             941.13,358.69 941.82,355.22 942.00,368.00
             942.11,375.46 944.49,378.74 952.00,380.00
             952.00,380.00 953.00,377.23 953.00,377.23
             955.48,384.07 959.79,379.08 964.17,377.23
             964.17,377.23 968.74,376.13 968.74,376.13
             968.74,376.13 973.22,373.07 973.22,373.07
             979.66,369.01 988.78,366.04 991.00,358.00
             991.00,358.00 988.00,357.00 988.00,357.00
             991.35,355.63 990.91,354.72 989.00,352.00 Z
           M 807.00,336.00
           C 802.78,327.18 796.18,327.41 787.92,327.18
             781.52,327.01 778.65,323.28 772.00,328.00
             767.94,325.40 768.01,326.71 763.83,327.27
             761.00,327.64 757.10,327.02 754.70,328.95
             748.03,334.32 751.16,352.26 751.00,360.00
             758.19,360.01 759.98,359.47 766.00,364.00
             761.95,365.00 756.83,366.53 755.53,371.04
             754.07,376.06 758.82,379.16 753.00,383.00
             753.31,384.39 753.31,385.26 754.17,386.53
             754.93,387.66 761.87,392.97 763.18,393.46
             766.99,394.82 780.87,394.82 784.91,393.46
             790.00,391.81 788.60,390.23 796.00,389.00
             796.00,389.00 796.00,385.00 796.00,385.00
             804.40,384.03 805.65,378.57 814.00,375.00
             814.00,375.00 813.00,370.00 813.00,370.00
             818.61,370.71 821.60,365.32 821.59,360.17
             821.59,360.17 821.02,355.87 821.02,355.87
             821.21,351.02 825.27,350.31 820.00,346.00
             822.69,343.30 819.49,342.23 819.00,336.00
             819.00,336.00 808.00,332.00 808.00,332.00
             808.00,332.00 807.00,336.00 807.00,336.00 Z
           M 642.00,325.00
           C 642.00,325.00 643.00,325.00 643.00,325.00
             643.00,325.00 642.00,326.00 642.00,326.00
             642.00,326.00 642.00,325.00 642.00,325.00 Z
           M 611.00,331.00
           C 611.00,331.00 612.00,331.00 612.00,331.00
             612.00,331.00 611.00,332.00 611.00,332.00
             611.00,332.00 611.00,331.00 611.00,331.00 Z
           M 561.00,332.00
           C 561.00,332.00 562.00,332.00 562.00,332.00
             562.00,332.00 561.00,333.00 561.00,333.00
             561.00,333.00 561.00,332.00 561.00,332.00 Z
           M 933.00,336.00
           C 933.00,336.00 934.00,336.00 934.00,336.00
             934.00,336.00 933.00,337.00 933.00,337.00
             933.00,337.00 933.00,336.00 933.00,336.00 Z
           M 629.00,338.00
           C 629.00,338.00 626.00,338.00 626.00,338.00
             626.00,338.00 623.00,341.00 623.00,341.00
             623.00,341.00 623.00,345.00 623.00,345.00
             623.00,345.00 626.00,345.00 626.00,345.00
             626.00,345.00 625.00,352.00 625.00,352.00
             625.00,352.00 620.00,351.00 620.00,351.00
             621.81,356.02 626.98,355.66 630.00,352.00
             630.00,352.00 635.00,353.00 635.00,353.00
             634.20,344.22 632.02,344.87 629.00,338.00 Z
           M 34.00,339.00
           C 35.06,340.47 35.66,341.33 36.37,343.04
             36.84,344.17 37.40,345.77 37.52,346.98
             38.33,355.74 28.04,349.70 30.43,343.18
             31.07,341.43 32.70,340.22 34.00,339.00 Z
           M 475.00,339.00
           C 475.00,339.00 476.00,339.00 476.00,339.00
             476.00,339.00 475.00,340.00 475.00,340.00
             475.00,340.00 475.00,339.00 475.00,339.00 Z
           M 648.00,339.00
           C 648.00,339.00 649.00,339.00 649.00,339.00
             649.00,339.00 648.00,340.00 648.00,340.00
             648.00,340.00 648.00,339.00 648.00,339.00 Z
           M 627.00,341.00
           C 627.00,341.00 628.00,341.00 628.00,341.00
             628.00,341.00 627.00,342.00 627.00,342.00
             627.00,342.00 627.00,341.00 627.00,341.00 Z
           M 951.00,342.00
           C 951.00,342.00 952.00,342.00 952.00,342.00
             952.00,342.00 951.00,343.00 951.00,343.00
             951.00,343.00 951.00,342.00 951.00,342.00 Z
           M 625.00,346.00
           C 625.00,346.00 622.00,346.00 622.00,346.00
             622.00,346.00 622.00,349.00 622.00,349.00
             622.00,349.00 625.00,349.00 625.00,349.00
             625.00,349.00 625.00,346.00 625.00,346.00 Z
           M 1009.00,346.00
           C 1009.00,346.00 1010.00,346.00 1010.00,346.00
             1010.00,346.00 1009.00,347.00 1009.00,347.00
             1009.00,347.00 1009.00,346.00 1009.00,346.00 Z
           M 861.00,347.00
           C 861.00,347.00 862.00,347.00 862.00,347.00
             862.00,347.00 861.00,348.00 861.00,348.00
             861.00,348.00 861.00,347.00 861.00,347.00 Z
           M 454.00,374.00
           C 454.22,365.98 455.99,367.67 458.02,361.00
             458.71,358.77 458.99,355.22 460.17,353.43
             462.11,350.51 469.03,347.00 471.98,351.31
             472.96,352.74 473.65,358.03 474.00,360.00
             471.15,361.98 466.80,365.15 465.12,368.26
             463.88,370.53 464.18,372.23 462.46,374.54
             462.46,374.54 459.11,377.97 459.11,377.97
             455.02,382.64 450.68,388.68 451.00,395.00
             446.86,395.69 446.29,395.96 445.00,400.00
             441.46,399.69 441.68,399.67 439.00,402.00
             439.00,402.00 435.00,400.00 435.00,400.00
             435.00,400.00 439.00,400.00 439.00,400.00
             438.06,387.20 446.57,387.16 448.00,378.00
             448.00,378.00 451.00,378.00 451.00,378.00
             451.00,378.00 451.00,374.00 451.00,374.00
             451.00,374.00 454.00,374.00 454.00,374.00 Z
           M 753.00,349.00
           C 753.00,349.00 754.00,349.00 754.00,349.00
             754.00,349.00 753.00,350.00 753.00,350.00
             753.00,350.00 753.00,349.00 753.00,349.00 Z
           M 545.00,351.00
           C 545.00,351.00 546.00,351.00 546.00,351.00
             546.00,351.00 545.00,352.00 545.00,352.00
             545.00,352.00 545.00,351.00 545.00,351.00 Z
           M 925.00,352.00
           C 925.00,352.00 926.00,352.00 926.00,352.00
             926.00,352.00 925.00,353.00 925.00,353.00
             925.00,353.00 925.00,352.00 925.00,352.00 Z
           M 528.00,356.00
           C 528.00,356.00 529.00,356.00 529.00,356.00
             529.00,356.00 528.00,357.00 528.00,357.00
             528.00,357.00 528.00,356.00 528.00,356.00 Z
           M 987.00,359.00
           C 987.00,359.00 988.00,359.00 988.00,359.00
             988.00,359.00 987.00,360.00 987.00,360.00
             987.00,360.00 987.00,359.00 987.00,359.00 Z
           M 812.00,368.00
           C 812.00,368.00 813.00,368.00 813.00,368.00
             813.00,368.00 812.00,369.00 812.00,369.00
             812.00,369.00 812.00,368.00 812.00,368.00 Z
           M 924.00,371.00
           C 924.00,371.00 925.00,371.00 925.00,371.00
             925.00,371.00 924.00,372.00 924.00,372.00
             924.00,372.00 924.00,371.00 924.00,371.00 Z
           M 617.00,374.00
           C 617.00,374.00 618.00,374.00 618.00,374.00
             618.00,374.00 617.00,375.00 617.00,375.00
             617.00,375.00 617.00,374.00 617.00,374.00 Z
           M 615.00,375.00
           C 615.00,375.00 616.00,375.00 616.00,375.00
             616.00,375.00 615.00,376.00 615.00,376.00
             615.00,376.00 615.00,375.00 615.00,375.00 Z
           M 538.00,382.00
           C 538.00,382.00 539.00,382.00 539.00,382.00
             539.00,382.00 538.00,383.00 538.00,383.00
             538.00,383.00 538.00,382.00 538.00,382.00 Z
           M 758.00,385.00
           C 758.00,385.00 759.00,385.00 759.00,385.00
             759.00,385.00 758.00,386.00 758.00,386.00
             758.00,386.00 758.00,385.00 758.00,385.00 Z
           M 762.00,386.00
           C 762.00,386.00 763.00,386.00 763.00,386.00
             763.00,386.00 762.00,387.00 762.00,387.00
             762.00,387.00 762.00,386.00 762.00,386.00 Z
           M 61.00,395.00
           C 61.00,395.00 71.00,400.00 71.00,400.00
             71.00,400.00 69.00,407.00 69.00,407.00
             64.60,404.52 62.02,399.87 61.00,395.00 Z
           M 652.00,396.00
           C 652.00,396.00 653.00,396.00 653.00,396.00
             653.00,396.00 652.00,397.00 652.00,397.00
             652.00,397.00 652.00,396.00 652.00,396.00 Z
           M 747.00,404.00
           C 747.00,404.00 748.00,404.00 748.00,404.00
             748.00,404.00 747.00,405.00 747.00,405.00
             747.00,405.00 747.00,404.00 747.00,404.00 Z
           M 430.00,405.00
           C 430.00,405.00 432.00,405.00 432.00,405.00
             431.68,411.48 430.61,412.59 426.00,417.00
             426.28,411.04 426.56,409.87 430.00,405.00 Z
           M 70.00,408.00
           C 70.00,408.00 83.00,411.00 83.00,411.00
             84.87,414.51 85.26,414.68 89.00,416.00
             89.00,416.00 92.00,425.00 92.00,425.00
             103.24,424.42 96.24,431.33 106.00,433.00
             107.92,438.57 112.38,442.37 118.00,444.00
             118.00,444.00 118.00,446.00 118.00,446.00
             118.00,446.00 111.00,448.00 111.00,448.00
             110.28,443.72 110.03,440.73 105.00,442.00
             105.00,442.00 90.61,432.93 90.61,432.93
             90.61,432.93 80.00,426.00 80.00,426.00
             80.00,426.00 70.00,408.00 70.00,408.00 Z
           M 422.00,415.00
           C 422.00,415.00 425.00,421.00 425.00,421.00
             425.00,421.00 406.00,436.00 406.00,436.00
             406.00,436.00 405.00,431.00 405.00,431.00
             405.00,431.00 409.00,431.00 409.00,431.00
             409.78,421.42 412.76,427.85 422.00,415.00 Z
           M 392.00,444.00
           C 392.80,439.48 393.57,439.25 398.00,440.00
             398.00,440.00 393.00,453.00 393.00,453.00
             385.73,451.31 376.64,455.38 373.00,462.00
             373.00,462.00 358.00,465.00 358.00,465.00
             358.00,465.00 363.71,459.33 363.71,459.33
             363.71,459.33 368.27,454.53 368.27,454.53
             368.27,454.53 383.96,447.87 383.96,447.87
             383.96,447.87 392.00,444.00 392.00,444.00 Z
           M 130.00,456.00
           C 130.00,456.00 136.00,457.00 136.00,457.00
             136.00,457.00 130.00,456.00 130.00,456.00 Z
           M 139.00,460.00
           C 139.00,460.00 140.00,460.00 140.00,460.00
             140.00,460.00 139.00,461.00 139.00,461.00
             139.00,461.00 139.00,460.00 139.00,460.00 Z
           M 138.00,463.00
           C 138.00,463.00 139.00,463.00 139.00,463.00
             139.00,463.00 138.00,464.00 138.00,464.00
             138.00,464.00 138.00,463.00 138.00,463.00 Z
           M 347.00,467.00
           C 347.00,467.00 349.00,467.00 349.00,467.00
             349.00,467.00 346.00,473.00 346.00,473.00
             346.00,473.00 343.00,469.00 343.00,469.00
             343.00,469.00 347.00,467.00 347.00,467.00 Z
           M 310.00,480.00
           C 310.00,480.00 318.00,480.00 318.00,480.00
             318.00,480.00 310.00,482.00 310.00,482.00
             310.00,482.00 310.00,480.00 310.00,480.00 Z
           M 290.00,485.00
           C 290.00,485.00 291.00,485.00 291.00,485.00
             291.00,485.00 290.00,486.00 290.00,486.00
             290.00,486.00 290.00,485.00 290.00,485.00 Z" />
</svg>
