<?xml version="1.0" encoding="utf-8"?>
<!-- Generator: Adobe Illustrator 25.3.1, SVG Export Plug-In . SVG Version: 6.00 Build 0)  -->
<svg version="1.1" id="Livello_1" xmlns="http://www.w3.org/2000/svg" xmlns:xlink="http://www.w3.org/1999/xlink" x="0px" y="0px"
	 viewBox="0 0 500 500" style="enable-background:new 0 0 500 500;" xml:space="preserve">
<style type="text/css">
	.st0{fill:#FFFFFF;}
</style>
<path class="st0" d="M330.5,283.7c-5.1,0-8-3.3-8-9V242c0-8-4.3-12.3-11.2-12.3c-6.9,0-11.9,5.4-11.9,13v31.8c0,5.8-2.9,9-8,9
	c-5.1,0-8-3.3-8-9v-32.2c0-8-4.3-12.7-11.6-12.7c-6.9,0-11.6,5.1-11.6,13v31.8c0,5.8-2.9,9-8.3,9c-5.1,0-8.3-3.3-8.3-9v-48.9
	c0-5.4,3.3-8.7,8-8.7s7.6,3.3,8,8.3v3.3h0.7c2.2-7.2,9-11.9,18.1-11.9c9,0,15.9,4.7,18.1,12.3h0.7c2.9-7.6,10.1-12.3,19.9-12.3
	c13.4,0,21,8,21,21v37.6C338.9,280.8,335.6,283.7,330.5,283.7z M355.9,294.2c1.4,0,2.5,0.4,4.3,0.4c3.6,0,6.9-2.9,8.3-6.9
	c0.4-1.1,0.7-2.2,0.7-3.6l-19.2-54.6c-0.4-1.4-0.7-2.9-0.7-4.3c0-4.3,3.3-7.6,8-7.6c4.3,0,7.2,2.5,8.3,8l12.7,44.2h0.7l13-44.9
	c1.4-5.1,4-8,8.3-8c4.3,0,7.6,3.3,7.6,7.6c0,1.4-0.4,2.9-1.1,4.3L387,285.5c-5.1,14.8-12.7,20.6-26.1,20.6c-4.3,0-7.6-1.1-9.4-2.9
	c-0.7-0.7-1.1-1.1-1.4-2.2c-0.4-0.7-0.4-1.4-0.4-2.5C350.1,296.3,352.6,294.2,355.9,294.2z M435.8,273.2h-0.7v2.9c0,5.1-3.3,8-8,8
	c-5.1,0-8-3.3-8-9v-72c0-5.8,2.9-9,8.3-9c5.1,0,8.3,3.3,8.3,9v25h0.7c2.2-6.9,9.8-11.2,19.2-11.2c15.2,0,24.2,10.9,24.2,29.3v9
	c0,18.1-9.4,29.3-24.6,29.3C445.6,284,438.7,280,435.8,273.2z M449.6,271c8.3,0,13.4-6.5,13.4-17.7v-5.8c0-11.2-5.1-18.1-13.4-18.1
	c-8.7,0-13.8,6.5-13.8,17v8.3C435.5,264.5,440.9,271,449.6,271L449.6,271z M28,240.6c-1.4,0-3.3,0.4-4.3,1.4
	c-1.4,0.7-2.2,2.2-2.9,3.6c-0.7,1.1-0.7,2.9-0.7,4.3c0.4,1.4,1.1,2.9,2.2,4c1.1,1.1,2.5,1.8,4,2.2c1.4,0.4,3.3,0,4.7-0.4
	c1.4-0.7,2.5-1.4,3.6-2.9c0.7-1.4,1.4-2.9,1.4-4.3c0-2.2-0.7-4-2.2-5.4C31.9,241.3,30.1,240.6,28,240.6L28,240.6z M59.8,240.6
	c-1.4,0-3.3,0.4-4.3,1.4c-1.4,0.7-2.2,2.2-2.9,3.6c-0.7,1.4-0.7,2.9-0.4,4.7c0.4,1.4,1.1,2.9,2.2,4c1.1,1.1,2.5,1.8,4,2.2
	c1.4,0.4,3.3,0,4.7-0.4c1.4-0.7,2.5-1.4,3.6-2.9c0.7-1.4,1.4-2.9,1.4-4.3c0-2.2-0.7-4-2.2-5.4C63.8,241.3,61.6,240.6,59.8,240.6
	L59.8,240.6z M91.3,240.6c-1.4,0-3.3,0.4-4.3,1.4c-1.4,0.7-2.2,2.2-2.9,3.6c-0.7,1.4-0.7,2.9-0.4,4.7c0.4,1.4,1.1,2.9,2.2,4
	c1.1,1.1,2.5,1.8,4,2.2c1.4,0.4,3.3,0,4.7-0.4c1.4-0.7,2.5-1.4,3.6-2.9c0.7-1.4,1.4-2.9,1.4-4.3c0-2.2-0.7-4-2.2-5.4
	C95.6,241.3,93.5,240.6,91.3,240.6L91.3,240.6z M131.1,258v-18.8c0-2.2-0.7-4-2.2-5.4c-1.4-1.4-3.6-2.2-5.4-2.2
	c-2.2,0-4,0.7-5.4,2.2c-1.4,1.4-2.2,3.6-2.2,5.4V258c0,2.2,0.7,4,2.2,5.4c1.4,1.4,3.6,2.2,5.4,2.2l0,0c2.2,0,4-0.7,5.4-2.2
	C130,261.9,131.1,259.8,131.1,258L131.1,258z M162.6,281.1V216c0-2.2-0.7-4-2.2-5.4c-1.4-1.4-3.6-2.2-5.4-2.2l0,0
	c-2.2,0-4,0.7-5.4,2.2c-1.4,1.4-2.2,3.6-2.2,5.4v65.1c0,2.2,0.7,4,2.2,5.4c1.4,1.4,3.6,2.2,5.4,2.2c2.2,0,4-0.7,5.4-2.2
	C161.9,285.1,162.6,283.3,162.6,281.1L162.6,281.1z M194.4,268.8v-40.5c0-2.2-0.7-4-2.2-5.4c-1.4-1.4-3.6-2.2-5.4-2.2l0,0
	c-2.2,0-4,0.7-5.4,2.2c-1.4,1.4-2.2,3.6-2.2,5.4v40.5c0,2.2,0.7,4,2.2,5.4c1.4,1.4,3.6,2.2,5.4,2.2l0,0c2.2,0,4-0.7,5.4-2.2
	C193.7,272.8,194.4,271,194.4,268.8L194.4,268.8z M226.3,293.8V203c0-2.2-0.7-4-2.2-5.4c-1.4-1.4-3.6-2.2-5.8-2.2l0,0
	c-2.2,0-4,0.7-5.4,2.2c-1.4,1.4-2.2,3.6-2.2,5.4v90.8c0,2.2,0.7,4,2.2,5.4c1.4,1.4,3.6,2.2,5.4,2.2l0,0c2.2,0,4-0.7,5.4-2.2
	C225.2,298.1,226.3,296,226.3,293.8L226.3,293.8z"/>
</svg>
